Coordinates
version=1
nRows=5
nColumns=55
inDegrees=yes

Units are S.I. units (second, meters, Newtons, ...)
If the header above contains a line with 'inDegrees', this indicates whether rotational values are in degrees (yes) or radians (no).

endheader
time	pelvis_tilt	pelvis_list	pelvis_rotation	pelvis_tx	pelvis_ty	pelvis_tz	hip_flexion_r	hip_adduction_r	hip_rotation_r	knee_angle_r	knee_angle_r_beta	ankle_angle_r	subtalar_angle_r	mtp_angle_r	hip_flexion_l	hip_adduction_l	hip_rotation_l	knee_angle_l	knee_angle_l_beta	ankle_angle_l	subtalar_angle_l	mtp_angle_l	lumbar_extension	lumbar_bending	lumbar_rotation	torso_tx	torso_ty	torso_tz	arm_flex_r	arm_add_r	arm_rot_r	shoulder_rx	shoulder_ry	shoulder_rz	elbow_flex_r	pro_sup_r	wrist_flex_r	wrist_dev_r	arm_flex_l	arm_add_l	arm_rot_l	shoulder_lx	shoulder_ly	shoulder_lz	elbow_flex_l	pro_sup_l	wrist_flex_l	wrist_dev_l	neck_extension	neck_bending	neck_rotation	head_tx	head_ty	head_tz
     25.96000000	     13.69501147	      4.85784191	     -4.48667589	      0.78364095	      0.99295154	     -0.17135165	     -7.91412825	    -12.22709578	      7.13949004	     92.24008661	      1.60989321	    -18.27831640	    -14.66991192	      8.79130286	      5.04659409	      8.17372562	     -3.84359164	     36.96832773	      0.64521904	     18.04413060	     -5.51513292	      6.83312841	    -18.20477106	     -7.65027881	      3.89279008	      0.08904329	     -0.00402115	     -0.00554680	    -28.61786872	    -22.60862749	      1.05434085	     -0.01691725	     -0.03122236	     -0.03211209	    115.95083468	     33.60966096	     -6.28361831	    -41.82279737	    -28.19139357	    -22.93617222	     -9.93873092	     -0.01899171	     -0.04827708	      0.02397094	    128.07368657	     15.31282001	      8.26026558	    -43.56179940	     15.78261162	      0.19062326	     -2.99617373	      0.01250374	      0.01602964	     -0.00365665
     25.97000000	     14.01998686	      5.08857137	     -4.16105495	      0.78139410	      0.98940501	     -0.17134716	     -5.09831692	    -12.38484793	      7.27650581	     95.57953593	      1.66817760	    -17.11591156	    -14.75084962	      8.60162595	      3.65899548	      8.61553218	     -3.19980059	     37.76423058	      0.65911016	     19.82957695	     -5.79459655	      6.54973325	    -18.66391612	     -7.90049249	      2.54299534	      0.09094412	     -0.00386765	     -0.00547173	    -29.23018021	    -22.32148665	      0.58733061	     -0.01642868	     -0.03158646	     -0.03256525	    113.99214603	     33.36776929	     -6.47079100	    -41.89046505	    -26.78533103	    -23.08546803	     -9.34447349	     -0.01680169	     -0.04906527	      0.02580864	    127.23102616	     15.24378363	      8.19162510	    -43.45208034	     15.86273933	      0.34313954	     -2.78790272	      0.01287172	      0.01640874	     -0.00365491
     25.98000000	     12.52674639	      6.65328452	     -3.59319355	      0.78154965	      0.98444538	     -0.17032088	     -0.85703271	    -13.77584542	      7.54812321	     98.52981450	      1.71966967	    -10.98378192	    -13.06235606	      7.85898367	      4.05331191	     10.74667740	     -0.76491382	     38.81506661	      0.67745071	     25.36678412	     -5.55913342	      5.69241688	    -17.98931162	     -9.16483214	      1.79843174	      0.08411324	      0.00037624	     -0.00911361	    -27.63397161	    -21.22307011	     -0.25748308	     -0.02491672	     -0.02805335	     -0.03168802	    110.79532251	     33.25715242	     -6.77244299	    -42.25814348	    -21.23655485	    -23.12981639	     -6.49420866	     -0.02181009	     -0.04535107	      0.02580761	    123.66008725	     15.07743259	      7.87656279	    -43.08386430	     16.24916654	      1.02114614	     -1.65835659	      0.01134101	      0.01633697	     -0.00571696
     25.99000000	     12.63948245	      6.50383181	     -2.94421082	      0.77939474	      0.98364730	     -0.16987207	      2.11371639	    -13.31349067	      7.28764584	    100.34765774	      1.75139702	    -10.77275452	    -12.42527648	      7.80543072	      2.36575560	     10.29281404	     -0.94281045	     38.62965000	      0.67421458	     25.10621627	     -5.28625091	      5.74106198	    -18.23342594	     -9.14719468	      0.23423347	      0.08635288	      0.00060528	     -0.00736911	    -28.25234265	    -21.03430178	     -0.20201693	     -0.02485073	     -0.02921215	     -0.03224404	    110.28440321	     33.26507898	     -6.82611578	    -42.35821992	    -20.41000643	    -23.26389172	     -5.75827421	     -0.01860950	     -0.04475748	      0.02574188	    123.74806181	     15.17824492	      7.87883437	    -43.00497937	     16.31962281	      1.06317600	     -1.58660222	      0.01096521	      0.01675693	     -0.00374743
     26.00000000	     10.77441159	      6.61970696	     -1.78229742	      0.77922541	      0.98324933	     -0.16954317	      6.86803746	    -12.98587125	      7.05186258	    101.55475056	      1.77246477	     -7.82855344	     -8.92216566	      7.50081917	      1.69184806	     10.07049065	      0.04201598	     36.57116634	      0.63828726	     25.65062528	     -2.88966235	      5.71052847	    -17.18063797	     -8.91931983	     -1.42230036	      0.07972196	      0.00329059	     -0.00781039	    -28.16674438	    -20.68364948	      0.02445859	     -0.02530328	     -0.02977336	     -0.03059290	    110.46248705	     33.71966324	     -6.86088542	    -42.94688220	    -16.38347757	    -23.34776230	     -3.06001053	     -0.02182860	     -0.04380963	      0.02480744	    122.58735992	     15.45733066	      7.70719047	    -42.84065066	     16.63508612	      1.55680206	     -0.82556243	      0.01040468	      0.01689949	     -0.00488466
